<svg xmlns="http://www.w3.org/2000/svg" xmlns:xlink="http://www.w3.org/1999/xlink" width="300" zoomAndPan="magnify" viewBox="0 0 224.87999 225" height="300" preserveAspectRatio="xMidYMid meet" version="1.0"><defs><g/><clipPath id="bb961ca826"><path d="M 45 14 L 180 14 L 180 149 L 45 149 Z M 45 14 " clip-rule="nonzero"/></clipPath><clipPath id="fa54caa6a7"><path d="M -8.878906 79.027344 L 114.863281 -40.152344 L 234.042969 83.589844 L 110.300781 202.769531 Z M -8.878906 79.027344 " clip-rule="nonzero"/></clipPath><clipPath id="cbfd531416"><path d="M -8.878906 79.027344 L 114.863281 -40.152344 L 234.042969 83.589844 L 110.300781 202.769531 Z M -8.878906 79.027344 " clip-rule="nonzero"/></clipPath></defs><g clip-path="url(#bb961ca826)"><g clip-path="url(#fa54caa6a7)"><g clip-path="url(#cbfd531416)"><path fill="#ffffff" d="M 161.023438 35.179688 C 160.953125 35.074219 160.875 34.976562 160.792969 34.882812 C 160.710938 34.804688 160.625 34.734375 160.539062 34.667969 C 159.777344 33.882812 158.996094 33.113281 158.195312 32.367188 C 157.398438 31.617188 156.582031 30.890625 155.746094 30.179688 C 154.914062 29.472656 154.0625 28.785156 153.191406 28.117188 C 152.324219 27.453125 151.441406 26.808594 150.539062 26.183594 C 149.640625 25.5625 148.726562 24.960938 147.796875 24.382812 C 146.867188 23.804688 145.921875 23.25 144.96875 22.71875 C 144.011719 22.183594 143.042969 21.675781 142.058594 21.191406 C 141.078125 20.707031 140.085938 20.246094 139.082031 19.8125 C 138.078125 19.375 137.0625 18.964844 136.039062 18.578125 C 135.015625 18.191406 133.980469 17.832031 132.941406 17.496094 C 131.898438 17.160156 130.847656 16.851562 129.792969 16.566406 C 128.734375 16.285156 127.671875 16.027344 126.601562 15.792969 C 125.53125 15.5625 124.457031 15.355469 123.375 15.175781 C 122.296875 15 121.214844 14.847656 120.125 14.71875 C 119.039062 14.59375 117.949219 14.496094 116.855469 14.421875 C 115.765625 14.347656 114.671875 14.304688 113.578125 14.285156 C 112.484375 14.265625 111.386719 14.273438 110.292969 14.308594 C 109.199219 14.34375 108.109375 14.402344 107.015625 14.492188 C 105.925781 14.582031 104.835938 14.695312 103.753906 14.835938 C 102.667969 14.980469 101.585938 15.148438 100.507812 15.339844 C 99.429688 15.535156 98.359375 15.757812 97.292969 16.003906 C 96.226562 16.25 95.167969 16.523438 94.113281 16.824219 C 93.0625 17.121094 92.015625 17.449219 90.980469 17.796875 C 89.941406 18.148438 88.914062 18.523438 87.894531 18.925781 C 86.878906 19.324219 85.871094 19.75 84.871094 20.199219 C 83.875 20.652344 82.886719 21.125 81.914062 21.625 C 80.9375 22.121094 79.976562 22.644531 79.027344 23.191406 C 78.078125 23.734375 77.144531 24.304688 76.222656 24.894531 C 75.304688 25.488281 74.398438 26.101562 73.507812 26.738281 C 72.613281 27.371094 71.738281 28.03125 70.882812 28.707031 C 70.023438 29.386719 69.179688 30.085938 68.355469 30.808594 C 67.53125 31.527344 66.726562 32.265625 65.9375 33.027344 C 65.914062 33.050781 65.894531 33.074219 65.871094 33.09375 L 65.859375 33.101562 L 65.859375 33.105469 L 65.847656 33.113281 C 65.066406 33.871094 64.300781 34.648438 63.554688 35.445312 C 62.804688 36.238281 62.078125 37.050781 61.371094 37.882812 C 60.667969 38.714844 59.980469 39.5625 59.316406 40.425781 C 58.648438 41.289062 58.003906 42.167969 57.382812 43.066406 C 56.761719 43.960938 56.160156 44.871094 55.582031 45.796875 C 55.003906 46.71875 54.449219 47.660156 53.917969 48.609375 C 53.386719 49.5625 52.875 50.527344 52.390625 51.503906 C 51.90625 52.480469 51.445312 53.46875 51.007812 54.46875 C 50.574219 55.46875 50.160156 56.476562 49.773438 57.496094 C 49.386719 58.515625 49.023438 59.546875 48.6875 60.582031 C 48.347656 61.621094 48.039062 62.664062 47.75 63.71875 C 47.464844 64.769531 47.207031 65.828125 46.972656 66.894531 C 46.738281 67.960938 46.527344 69.03125 46.347656 70.105469 C 46.164062 71.179688 46.007812 72.257812 45.878906 73.34375 C 45.75 74.425781 45.648438 75.511719 45.570312 76.597656 C 45.496094 77.6875 45.445312 78.777344 45.421875 79.867188 C 45.398438 80.957031 45.402344 82.046875 45.433594 83.136719 C 45.464844 84.226562 45.519531 85.316406 45.605469 86.402344 C 45.6875 87.492188 45.796875 88.578125 45.933594 89.660156 C 46.070312 90.742188 46.234375 91.820312 46.421875 92.894531 C 46.613281 93.96875 46.828125 95.035156 47.066406 96.097656 C 47.308594 97.164062 47.578125 98.21875 47.871094 99.269531 C 48.164062 100.320312 48.480469 101.363281 48.824219 102.398438 C 49.167969 103.433594 49.539062 104.460938 49.933594 105.476562 C 50.324219 106.496094 50.746094 107.5 51.1875 108.496094 C 51.632812 109.492188 52.097656 110.480469 52.589844 111.453125 C 53.082031 112.425781 53.597656 113.386719 54.132812 114.335938 C 54.671875 115.285156 55.234375 116.21875 55.816406 117.140625 C 56.402344 118.0625 57.007812 118.96875 57.636719 119.859375 C 58.265625 120.75 58.914062 121.625 59.585938 122.488281 C 60.257812 123.347656 60.949219 124.1875 61.660156 125.015625 C 62.375 125.839844 63.105469 126.648438 63.855469 127.4375 C 63.980469 127.636719 64.140625 127.804688 64.335938 127.9375 C 65.097656 128.726562 65.875 129.492188 66.675781 130.242188 C 67.472656 130.988281 68.289062 131.71875 69.125 132.425781 C 69.960938 133.136719 70.8125 133.824219 71.679688 134.488281 C 72.546875 135.15625 73.433594 135.800781 74.332031 136.421875 C 75.230469 137.046875 76.144531 137.648438 77.074219 138.226562 C 78.003906 138.804688 78.949219 139.359375 79.90625 139.890625 C 80.859375 140.425781 81.832031 140.933594 82.8125 141.417969 C 83.792969 141.902344 84.785156 142.363281 85.789062 142.796875 C 86.792969 143.234375 87.808594 143.644531 88.832031 144.03125 C 89.855469 144.417969 90.890625 144.777344 91.933594 145.113281 C 92.972656 145.449219 94.023438 145.757812 95.082031 146.042969 C 96.136719 146.328125 97.203125 146.585938 98.269531 146.816406 C 99.339844 147.050781 100.414062 147.253906 101.496094 147.433594 C 102.574219 147.613281 103.660156 147.765625 104.746094 147.890625 C 105.835938 148.019531 106.921875 148.117188 108.015625 148.191406 C 109.109375 148.261719 110.203125 148.308594 111.296875 148.328125 C 112.390625 148.347656 113.484375 148.339844 114.578125 148.304688 C 115.671875 148.269531 116.765625 148.207031 117.855469 148.121094 C 118.949219 148.03125 120.035156 147.917969 121.121094 147.773438 C 122.207031 147.632812 123.289062 147.464844 124.367188 147.269531 C 125.441406 147.078125 126.515625 146.855469 127.582031 146.609375 C 128.648438 146.359375 129.707031 146.089844 130.761719 145.789062 C 131.8125 145.488281 132.859375 145.164062 133.894531 144.816406 C 134.933594 144.464844 135.960938 144.089844 136.980469 143.6875 C 137.996094 143.289062 139.003906 142.863281 140.003906 142.410156 C 141 141.960938 141.988281 141.488281 142.960938 140.988281 C 143.9375 140.492188 144.898438 139.96875 145.847656 139.421875 C 146.796875 138.875 147.730469 138.308594 148.652344 137.714844 C 149.574219 137.125 150.480469 136.511719 151.371094 135.875 C 152.261719 135.238281 153.136719 134.582031 153.996094 133.902344 C 154.855469 133.222656 155.695312 132.523438 156.519531 131.804688 C 157.34375 131.085938 158.152344 130.34375 158.9375 129.585938 C 158.964844 129.5625 158.988281 129.535156 159.011719 129.511719 L 159.015625 129.511719 L 159.023438 129.503906 C 159.808594 128.746094 160.574219 127.96875 161.320312 127.171875 C 162.066406 126.378906 162.792969 125.566406 163.5 124.734375 C 164.207031 123.90625 164.890625 123.058594 165.558594 122.191406 C 166.222656 121.328125 166.867188 120.449219 167.488281 119.554688 C 168.113281 118.65625 168.710938 117.746094 169.289062 116.824219 C 169.867188 115.898438 170.425781 114.960938 170.957031 114.007812 C 171.488281 113.054688 171.996094 112.089844 172.480469 111.113281 C 172.96875 110.136719 173.429688 109.148438 173.863281 108.148438 C 174.300781 107.148438 174.714844 106.140625 175.101562 105.121094 C 175.488281 104.101562 175.851562 103.074219 176.1875 102.035156 C 176.523438 101 176.835938 99.953125 177.125 98.902344 C 177.410156 97.847656 177.667969 96.789062 177.902344 95.726562 C 178.136719 94.660156 178.347656 93.589844 178.527344 92.515625 C 178.710938 91.4375 178.867188 90.359375 178.996094 89.277344 C 179.125 88.195312 179.226562 87.109375 179.304688 86.019531 C 179.382812 84.933594 179.429688 83.84375 179.453125 82.753906 C 179.476562 81.664062 179.472656 80.570312 179.445312 79.480469 C 179.414062 78.390625 179.355469 77.304688 179.273438 76.214844 C 179.191406 75.128906 179.082031 74.042969 178.945312 72.960938 C 178.808594 71.878906 178.644531 70.800781 178.457031 69.726562 C 178.265625 68.652344 178.050781 67.582031 177.8125 66.519531 C 177.570312 65.457031 177.300781 64.398438 177.007812 63.347656 C 176.714844 62.296875 176.398438 61.253906 176.054688 60.21875 C 175.710938 59.183594 175.339844 58.160156 174.949219 57.140625 C 174.554688 56.125 174.136719 55.117188 173.691406 54.121094 C 173.25 53.125 172.78125 52.140625 172.289062 51.164062 C 171.800781 50.191406 171.285156 49.230469 170.746094 48.28125 C 170.207031 47.332031 169.648438 46.398438 169.0625 45.476562 C 168.480469 44.554688 167.871094 43.648438 167.246094 42.757812 C 166.617188 41.867188 165.964844 40.992188 165.296875 40.132812 C 164.625 39.273438 163.933594 38.429688 163.222656 37.601562 C 162.507812 36.777344 161.777344 35.96875 161.023438 35.179688 Z M 50.78125 80.148438 C 50.84375 76.339844 51.253906 72.570312 52.019531 68.835938 C 52.785156 65.105469 53.886719 61.476562 55.332031 57.949219 C 56.773438 54.421875 58.527344 51.0625 60.597656 47.863281 C 62.667969 44.664062 65.015625 41.6875 67.644531 38.925781 C 70.164062 41.78125 72.398438 44.847656 74.347656 48.121094 C 76.296875 51.394531 77.925781 54.820312 79.234375 58.398438 C 80.542969 61.976562 81.511719 65.644531 82.136719 69.402344 C 82.761719 73.160156 83.03125 76.945312 82.949219 80.753906 C 82.890625 84.558594 82.476562 88.328125 81.710938 92.058594 C 80.945312 95.789062 79.84375 99.414062 78.402344 102.9375 C 76.960938 106.464844 75.207031 109.824219 73.140625 113.019531 C 71.074219 116.21875 68.726562 119.195312 66.105469 121.953125 C 63.585938 119.097656 61.355469 116.03125 59.40625 112.761719 C 57.460938 109.488281 55.832031 106.0625 54.519531 102.488281 C 53.210938 98.914062 52.242188 95.25 51.613281 91.492188 C 50.984375 87.738281 50.707031 83.957031 50.78125 80.148438 Z M 69.824219 125.828125 C 72.699219 122.824219 75.273438 119.578125 77.542969 116.089844 C 79.8125 112.605469 81.738281 108.9375 83.320312 105.089844 C 84.902344 101.242188 86.113281 97.28125 86.953125 93.207031 C 87.792969 89.128906 88.246094 85.011719 88.3125 80.851562 C 88.402344 76.691406 88.101562 72.558594 87.414062 68.453125 C 86.730469 64.347656 85.667969 60.339844 84.230469 56.433594 C 82.792969 52.527344 81.003906 48.789062 78.863281 45.21875 C 76.722656 41.644531 74.269531 38.304688 71.503906 35.195312 C 72.9375 33.921875 74.421875 32.71875 75.964844 31.585938 C 77.511719 30.453125 79.101562 29.394531 80.746094 28.410156 C 82.386719 27.421875 84.070312 26.515625 85.796875 25.691406 C 87.523438 24.863281 89.285156 24.117188 91.082031 23.453125 C 92.878906 22.789062 94.699219 22.210938 96.550781 21.71875 C 98.402344 21.222656 100.269531 20.816406 102.15625 20.5 C 104.046875 20.179688 105.945312 19.949219 107.855469 19.808594 C 109.765625 19.664062 111.675781 19.613281 113.589844 19.648438 C 115.503906 19.683594 117.414062 19.808594 119.316406 20.023438 C 121.21875 20.238281 123.109375 20.542969 124.980469 20.933594 C 126.855469 21.324219 128.707031 21.800781 130.539062 22.363281 C 132.367188 22.925781 134.167969 23.574219 135.9375 24.304688 C 137.707031 25.035156 139.441406 25.847656 141.132812 26.742188 C 142.828125 27.632812 144.476562 28.605469 146.078125 29.652344 C 147.683594 30.699219 149.234375 31.816406 150.734375 33.007812 C 152.230469 34.199219 153.671875 35.457031 155.054688 36.785156 C 153.621094 38.285156 152.261719 39.851562 150.976562 41.480469 C 149.691406 43.109375 148.480469 44.792969 147.351562 46.535156 C 146.222656 48.277344 145.175781 50.066406 144.210938 51.90625 C 143.25 53.742188 142.371094 55.621094 141.585938 57.542969 C 140.796875 59.460938 140.097656 61.414062 139.488281 63.398438 C 138.882812 65.382812 138.367188 67.390625 137.945312 69.421875 C 137.527344 71.457031 137.199219 73.503906 136.96875 75.566406 C 136.738281 77.628906 136.605469 79.699219 136.566406 81.773438 C 136.527344 83.847656 136.585938 85.921875 136.738281 87.988281 C 136.890625 90.058594 137.140625 92.117188 137.488281 94.164062 C 137.832031 96.210938 138.273438 98.238281 138.804688 100.242188 C 139.339844 102.25 139.964844 104.226562 140.679688 106.171875 C 141.398438 108.121094 142.203125 110.03125 143.097656 111.902344 C 143.992188 113.777344 144.972656 115.605469 146.039062 117.386719 C 147.101562 119.167969 148.246094 120.898438 149.472656 122.570312 C 150.695312 124.246094 151.996094 125.863281 153.371094 127.417969 C 151.941406 128.6875 150.453125 129.890625 148.910156 131.027344 C 147.367188 132.160156 145.773438 133.21875 144.132812 134.203125 C 142.492188 135.1875 140.804688 136.09375 139.078125 136.921875 C 137.351562 137.75 135.589844 138.496094 133.796875 139.160156 C 132 139.824219 130.175781 140.402344 128.324219 140.894531 C 126.476562 141.386719 124.605469 141.792969 122.71875 142.113281 C 120.832031 142.433594 118.933594 142.664062 117.023438 142.804688 C 115.113281 142.945312 113.199219 143 111.285156 142.964844 C 109.371094 142.925781 107.464844 142.800781 105.5625 142.585938 C 103.65625 142.371094 101.769531 142.070312 99.894531 141.679688 C 98.019531 141.289062 96.167969 140.8125 94.339844 140.25 C 92.507812 139.683594 90.707031 139.039062 88.9375 138.304688 C 87.167969 137.574219 85.4375 136.761719 83.742188 135.871094 C 82.050781 134.976562 80.402344 134.007812 78.796875 132.960938 C 77.195312 131.914062 75.644531 130.796875 74.144531 129.605469 C 72.644531 128.414062 71.203125 127.152344 69.824219 125.828125 Z M 157.234375 123.683594 C 155.980469 122.257812 154.796875 120.777344 153.679688 119.238281 C 152.5625 117.703125 151.519531 116.117188 150.550781 114.484375 C 149.582031 112.847656 148.691406 111.175781 147.875 109.457031 C 147.058594 107.742188 146.328125 105.992188 145.671875 104.210938 C 145.019531 102.425781 144.449219 100.617188 143.964844 98.78125 C 143.480469 96.941406 143.078125 95.089844 142.765625 93.214844 C 142.449219 91.339844 142.222656 89.457031 142.082031 87.5625 C 141.945312 85.667969 141.890625 83.773438 141.925781 81.875 C 141.960938 79.972656 142.085938 78.082031 142.292969 76.191406 C 142.503906 74.304688 142.800781 72.429688 143.183594 70.570312 C 143.570312 68.710938 144.039062 66.871094 144.589844 65.054688 C 145.144531 63.238281 145.78125 61.449219 146.5 59.691406 C 147.21875 57.933594 148.015625 56.210938 148.894531 54.527344 C 149.769531 52.84375 150.726562 51.203125 151.753906 49.605469 C 152.785156 48.007812 153.882812 46.464844 155.058594 44.96875 C 156.230469 43.476562 157.46875 42.039062 158.773438 40.65625 C 160.027344 42.085938 161.214844 43.566406 162.332031 45.101562 C 163.449219 46.640625 164.492188 48.222656 165.460938 49.855469 C 166.433594 51.492188 167.324219 53.164062 168.140625 54.882812 C 168.957031 56.597656 169.691406 58.347656 170.34375 60.128906 C 171 61.914062 171.570312 63.722656 172.054688 65.5625 C 172.539062 67.398438 172.941406 69.253906 173.253906 71.125 C 173.570312 73 173.796875 74.882812 173.9375 76.777344 C 174.078125 78.671875 174.132812 80.570312 174.097656 82.46875 C 174.0625 84.371094 173.9375 86.261719 173.726562 88.152344 C 173.515625 90.039062 173.21875 91.914062 172.835938 93.773438 C 172.453125 95.636719 171.984375 97.472656 171.429688 99.292969 C 170.875 101.109375 170.238281 102.894531 169.519531 104.65625 C 168.800781 106.414062 168 108.132812 167.121094 109.820312 C 166.242188 111.503906 165.289062 113.144531 164.257812 114.738281 C 163.226562 116.335938 162.125 117.878906 160.953125 119.375 C 159.78125 120.867188 158.539062 122.304688 157.234375 123.683594 Z M 157.234375 123.683594 " fill-opacity="1" fill-rule="nonzero"/></g></g></g><g fill="#ffffff" fill-opacity="1"><g transform="translate(107.80041, 64.251305)"><g><path d="M 1.953125 0 L 1.953125 -18.515625 L 7.296875 -18.515625 L 7.296875 0 Z M 1.953125 0 "/></g></g></g><g fill="#ffffff" fill-opacity="1"><g transform="translate(102.102085, 88.440112)"><g><path d="M 1.953125 0 L 1.953125 -18.515625 L 9.8125 -18.515625 C 11.800781 -18.515625 13.539062 -18.128906 15.03125 -17.359375 C 16.53125 -16.597656 17.691406 -15.519531 18.515625 -14.125 C 19.347656 -12.726562 19.765625 -11.109375 19.765625 -9.265625 C 19.765625 -7.410156 19.347656 -5.785156 18.515625 -4.390625 C 17.691406 -2.992188 16.53125 -1.910156 15.03125 -1.140625 C 13.539062 -0.378906 11.800781 0 9.8125 0 Z M 7.296875 -4.78125 L 9.65625 -4.78125 C 11.0625 -4.78125 12.1875 -5.1875 13.03125 -6 C 13.882812 -6.8125 14.3125 -7.898438 14.3125 -9.265625 C 14.3125 -10.617188 13.882812 -11.703125 13.03125 -12.515625 C 12.1875 -13.328125 11.0625 -13.734375 9.65625 -13.734375 L 7.296875 -13.734375 Z M 7.296875 -4.78125 "/></g></g></g><g fill="#ffffff" fill-opacity="1"><g transform="translate(103.400683, 112.628919)"><g><path d="M 1.953125 0 L 1.953125 -18.515625 L 9.765625 -18.515625 C 11.328125 -18.515625 12.6875 -18.234375 13.84375 -17.671875 C 15 -17.109375 15.890625 -16.304688 16.515625 -15.265625 C 17.140625 -14.222656 17.453125 -12.988281 17.453125 -11.5625 C 17.453125 -10.144531 17.140625 -8.910156 16.515625 -7.859375 C 15.890625 -6.816406 15 -6.007812 13.84375 -5.4375 C 12.6875 -4.863281 11.328125 -4.578125 9.765625 -4.578125 L 7.296875 -4.578125 L 7.296875 0 Z M 7.25 -9.046875 L 9.265625 -9.046875 C 10.140625 -9.046875 10.820312 -9.265625 11.3125 -9.703125 C 11.8125 -10.148438 12.0625 -10.757812 12.0625 -11.53125 C 12.0625 -12.3125 11.8125 -12.921875 11.3125 -13.359375 C 10.820312 -13.796875 10.140625 -14.015625 9.265625 -14.015625 L 7.25 -14.015625 Z M 7.25 -9.046875 "/></g></g></g><g fill="#ffffff" fill-opacity="1"><g transform="translate(23.616415, 187.344462)"><g><path d="M 1.8125 0 L 1.8125 -17.1875 L 6.78125 -17.1875 L 6.78125 0 Z M 1.8125 0 "/></g></g></g><g fill="#ffffff" fill-opacity="1"><g transform="translate(32.21215, 187.344462)"><g><path d="M 1.8125 0 L 1.8125 -17.1875 L 5.875 -17.1875 L 12.40625 -8.46875 L 12.40625 -17.1875 L 17.296875 -17.1875 L 17.296875 0 L 13.265625 0 L 6.734375 -8.765625 L 6.734375 0 Z M 1.8125 0 "/></g></g></g><g fill="#ffffff" fill-opacity="1"><g transform="translate(51.343794, 187.344462)"><g><path d="M 5.921875 0 L 5.921875 -12.59375 L 0.6875 -12.59375 L 0.6875 -17.1875 L 16.09375 -17.1875 L 16.09375 -12.59375 L 10.859375 -12.59375 L 10.859375 0 Z M 5.921875 0 "/></g></g></g><g fill="#ffffff" fill-opacity="1"><g transform="translate(68.117751, 187.344462)"><g><path d="M 1.8125 0 L 1.8125 -17.1875 L 13.609375 -17.1875 L 13.609375 -13.1875 L 6.734375 -13.1875 L 6.734375 -10.6875 L 12.9375 -10.6875 L 12.9375 -6.703125 L 6.734375 -6.703125 L 6.734375 -4.046875 L 13.875 -4.046875 L 13.875 0 Z M 1.8125 0 "/></g></g></g><g fill="#ffffff" fill-opacity="1"><g transform="translate(83.098883, 187.344462)"><g><path d="M 1.8125 0 L 1.8125 -17.1875 L 9.65625 -17.1875 C 11.039062 -17.1875 12.238281 -16.9375 13.25 -16.4375 C 14.257812 -15.945312 15.035156 -15.238281 15.578125 -14.3125 C 16.128906 -13.394531 16.40625 -12.300781 16.40625 -11.03125 C 16.40625 -9.832031 16.160156 -8.785156 15.671875 -7.890625 C 15.179688 -7.003906 14.476562 -6.304688 13.5625 -5.796875 L 16.734375 0 L 11.109375 0 L 8.640625 -4.890625 L 6.78125 -4.890625 L 6.78125 0 Z M 6.6875 -8.84375 L 8.984375 -8.84375 C 9.773438 -8.84375 10.378906 -9.03125 10.796875 -9.40625 C 11.210938 -9.78125 11.421875 -10.3125 11.421875 -11 C 11.421875 -11.6875 11.210938 -12.210938 10.796875 -12.578125 C 10.378906 -12.953125 9.773438 -13.140625 8.984375 -13.140625 L 6.6875 -13.140625 Z M 6.6875 -8.84375 "/></g></g></g><g fill="#ffffff" fill-opacity="1"><g transform="translate(100.781538, 187.344462)"><g><path d="M 9.84375 0.375 C 8.0625 0.375 6.492188 0 5.140625 -0.75 C 3.796875 -1.507812 2.738281 -2.5625 1.96875 -3.90625 C 1.207031 -5.257812 0.828125 -6.820312 0.828125 -8.59375 C 0.828125 -10.363281 1.203125 -11.921875 1.953125 -13.265625 C 2.710938 -14.617188 3.765625 -15.671875 5.109375 -16.421875 C 6.460938 -17.179688 8.023438 -17.5625 9.796875 -17.5625 C 11.335938 -17.5625 12.726562 -17.265625 13.96875 -16.671875 C 15.21875 -16.085938 16.265625 -15.257812 17.109375 -14.1875 C 17.953125 -13.125 18.519531 -11.867188 18.8125 -10.421875 L 13.796875 -10.421875 C 13.535156 -11.179688 13.0625 -11.796875 12.375 -12.265625 C 11.6875 -12.734375 10.894531 -12.96875 10 -12.96875 C 9.195312 -12.96875 8.484375 -12.78125 7.859375 -12.40625 C 7.234375 -12.039062 6.742188 -11.53125 6.390625 -10.875 C 6.046875 -10.226562 5.875 -9.46875 5.875 -8.59375 C 5.875 -7.738281 6.046875 -6.976562 6.390625 -6.3125 C 6.734375 -5.65625 7.210938 -5.140625 7.828125 -4.765625 C 8.441406 -4.398438 9.148438 -4.21875 9.953125 -4.21875 C 10.878906 -4.21875 11.6875 -4.457031 12.375 -4.9375 C 13.0625 -5.425781 13.5625 -6.070312 13.875 -6.875 L 18.90625 -6.875 C 18.664062 -5.414062 18.128906 -4.140625 17.296875 -3.046875 C 16.460938 -1.960938 15.410156 -1.117188 14.140625 -0.515625 C 12.867188 0.078125 11.4375 0.375 9.84375 0.375 Z M 9.84375 0.375 "/></g></g></g><g fill="#ffffff" fill-opacity="1"><g transform="translate(120.478043, 187.344462)"><g><path d="M 1.8125 0 L 1.8125 -17.1875 L 6.78125 -17.1875 L 6.78125 -4.59375 L 13.796875 -4.59375 L 13.796875 0 Z M 1.8125 0 "/></g></g></g><g fill="#ffffff" fill-opacity="1"><g transform="translate(134.894314, 187.344462)"><g><path d="M 9.21875 0.375 C 7.675781 0.375 6.335938 0.078125 5.203125 -0.515625 C 4.078125 -1.117188 3.207031 -1.976562 2.59375 -3.09375 C 1.976562 -4.207031 1.671875 -5.535156 1.671875 -7.078125 L 1.671875 -17.1875 L 6.625 -17.1875 L 6.625 -7.390625 C 6.625 -5.316406 7.488281 -4.28125 9.21875 -4.28125 C 10.9375 -4.28125 11.796875 -5.316406 11.796875 -7.390625 L 11.796875 -17.1875 L 16.734375 -17.1875 L 16.734375 -7.078125 C 16.734375 -5.535156 16.425781 -4.207031 15.8125 -3.09375 C 15.207031 -1.976562 14.34375 -1.117188 13.21875 -0.515625 C 12.101562 0.078125 10.769531 0.375 9.21875 0.375 Z M 9.21875 0.375 "/></g></g></g><g fill="#ffffff" fill-opacity="1"><g transform="translate(153.313737, 187.344462)"><g><path d="M 1.8125 0 L 1.8125 -17.1875 L 10.1875 -17.1875 C 11.988281 -17.1875 13.414062 -16.769531 14.46875 -15.9375 C 15.519531 -15.101562 16.046875 -13.984375 16.046875 -12.578125 C 16.046875 -11.753906 15.863281 -11.007812 15.5 -10.34375 C 15.132812 -9.6875 14.617188 -9.171875 13.953125 -8.796875 C 14.765625 -8.429688 15.398438 -7.898438 15.859375 -7.203125 C 16.328125 -6.515625 16.5625 -5.710938 16.5625 -4.796875 C 16.5625 -3.859375 16.3125 -3.03125 15.8125 -2.3125 C 15.3125 -1.59375 14.613281 -1.023438 13.71875 -0.609375 C 12.820312 -0.203125 11.796875 0 10.640625 0 Z M 6.6875 -3.6875 L 9.671875 -3.6875 C 10.265625 -3.6875 10.71875 -3.828125 11.03125 -4.109375 C 11.351562 -4.398438 11.515625 -4.800781 11.515625 -5.3125 C 11.515625 -5.8125 11.351562 -6.203125 11.03125 -6.484375 C 10.71875 -6.765625 10.265625 -6.90625 9.671875 -6.90625 L 6.6875 -6.90625 Z M 6.6875 -10.4375 L 9.265625 -10.4375 C 10.453125 -10.4375 11.046875 -10.953125 11.046875 -11.984375 C 11.046875 -13.015625 10.453125 -13.53125 9.265625 -13.53125 L 6.6875 -13.53125 Z M 6.6875 -10.4375 "/></g></g></g><g fill="#ffffff" fill-opacity="1"><g transform="translate(170.578881, 187.344462)"><g><path d="M 1.8125 0 L 1.8125 -17.1875 L 13.609375 -17.1875 L 13.609375 -13.1875 L 6.734375 -13.1875 L 6.734375 -10.6875 L 12.9375 -10.6875 L 12.9375 -6.703125 L 6.734375 -6.703125 L 6.734375 -4.046875 L 13.875 -4.046875 L 13.875 0 Z M 1.8125 0 "/></g></g></g><g fill="#ffffff" fill-opacity="1"><g transform="translate(185.560012, 187.344462)"><g><path d="M 7.984375 0.375 C 5.753906 0.375 4.007812 -0.148438 2.75 -1.203125 C 1.488281 -2.265625 0.859375 -3.722656 0.859375 -5.578125 L 5.65625 -5.578125 C 5.65625 -4.921875 5.851562 -4.40625 6.25 -4.03125 C 6.65625 -3.664062 7.207031 -3.484375 7.90625 -3.484375 C 8.507812 -3.484375 8.984375 -3.601562 9.328125 -3.84375 C 9.671875 -4.082031 9.84375 -4.414062 9.84375 -4.84375 C 9.84375 -5.789062 8.8125 -6.46875 6.75 -6.875 C 2.90625 -7.613281 0.984375 -9.425781 0.984375 -12.3125 C 0.984375 -13.925781 1.566406 -15.203125 2.734375 -16.140625 C 3.910156 -17.085938 5.515625 -17.5625 7.546875 -17.5625 C 8.953125 -17.5625 10.171875 -17.320312 11.203125 -16.84375 C 12.242188 -16.375 13.046875 -15.703125 13.609375 -14.828125 C 14.179688 -13.953125 14.46875 -12.921875 14.46875 -11.734375 L 9.796875 -11.734375 C 9.796875 -12.390625 9.609375 -12.890625 9.234375 -13.234375 C 8.859375 -13.578125 8.328125 -13.75 7.640625 -13.75 C 7.066406 -13.75 6.609375 -13.628906 6.265625 -13.390625 C 5.921875 -13.160156 5.75 -12.832031 5.75 -12.40625 C 5.75 -11.957031 5.976562 -11.585938 6.4375 -11.296875 C 6.894531 -11.003906 7.671875 -10.734375 8.765625 -10.484375 C 10.859375 -10.023438 12.382812 -9.359375 13.34375 -8.484375 C 14.300781 -7.609375 14.78125 -6.457031 14.78125 -5.03125 C 14.78125 -3.34375 14.179688 -2.019531 12.984375 -1.0625 C 11.796875 -0.101562 10.128906 0.375 7.984375 0.375 Z M 7.984375 0.375 "/></g></g></g><g fill="#ffffff" fill-opacity="1"><g transform="translate(53.420381, 208.974553)"><g><path d="M 1.8125 0 L 1.8125 -17.1875 L 9.109375 -17.1875 C 10.960938 -17.1875 12.582031 -16.832031 13.96875 -16.125 C 15.351562 -15.414062 16.425781 -14.410156 17.1875 -13.109375 C 17.957031 -11.816406 18.34375 -10.3125 18.34375 -8.59375 C 18.34375 -6.875 17.957031 -5.367188 17.1875 -4.078125 C 16.425781 -2.785156 15.351562 -1.78125 13.96875 -1.0625 C 12.582031 -0.351562 10.960938 0 9.109375 0 Z M 6.78125 -4.453125 L 8.96875 -4.453125 C 10.28125 -4.453125 11.328125 -4.828125 12.109375 -5.578125 C 12.890625 -6.328125 13.28125 -7.332031 13.28125 -8.59375 C 13.28125 -9.851562 12.890625 -10.859375 12.109375 -11.609375 C 11.328125 -12.367188 10.28125 -12.75 8.96875 -12.75 L 6.78125 -12.75 Z M 6.78125 -4.453125 "/></g></g></g><g fill="#ffffff" fill-opacity="1"><g transform="translate(72.60114, 208.974553)"><g><path d="M 1.8125 0 L 1.8125 -17.1875 L 13.609375 -17.1875 L 13.609375 -13.1875 L 6.734375 -13.1875 L 6.734375 -10.6875 L 12.9375 -10.6875 L 12.9375 -6.703125 L 6.734375 -6.703125 L 6.734375 -4.046875 L 13.875 -4.046875 L 13.875 0 Z M 1.8125 0 "/></g></g></g><g fill="#ffffff" fill-opacity="1"><g transform="translate(87.582272, 208.974553)"><g><path d="M 1.8125 0 L 1.8125 -17.1875 L 9.0625 -17.1875 C 10.519531 -17.1875 11.785156 -16.925781 12.859375 -16.40625 C 13.929688 -15.882812 14.757812 -15.140625 15.34375 -14.171875 C 15.925781 -13.203125 16.21875 -12.054688 16.21875 -10.734375 C 16.21875 -9.421875 15.925781 -8.273438 15.34375 -7.296875 C 14.757812 -6.328125 13.929688 -5.578125 12.859375 -5.046875 C 11.785156 -4.515625 10.519531 -4.25 9.0625 -4.25 L 6.78125 -4.25 L 6.78125 0 Z M 6.734375 -8.40625 L 8.59375 -8.40625 C 9.414062 -8.40625 10.054688 -8.609375 10.515625 -9.015625 C 10.972656 -9.421875 11.203125 -9.984375 11.203125 -10.703125 C 11.203125 -11.429688 10.972656 -12 10.515625 -12.40625 C 10.054688 -12.8125 9.414062 -13.015625 8.59375 -13.015625 L 6.734375 -13.015625 Z M 6.734375 -8.40625 "/></g></g></g><g fill="#ffffff" fill-opacity="1"><g transform="translate(104.356229, 208.974553)"><g><path d="M 0.125 0 L 6.796875 -17.1875 L 11.71875 -17.1875 L 18.390625 0 L 13.109375 0 L 12.1875 -2.4375 L 6.3125 -2.4375 L 5.375 0 Z M 7.34375 -6.0625 L 11.171875 -6.0625 L 9.265625 -11.390625 Z M 7.34375 -6.0625 "/></g></g></g><g fill="#ffffff" fill-opacity="1"><g transform="translate(122.873896, 208.974553)"><g><path d="M 1.8125 0 L 1.8125 -17.1875 L 9.109375 -17.1875 C 10.960938 -17.1875 12.582031 -16.832031 13.96875 -16.125 C 15.351562 -15.414062 16.425781 -14.410156 17.1875 -13.109375 C 17.957031 -11.816406 18.34375 -10.3125 18.34375 -8.59375 C 18.34375 -6.875 17.957031 -5.367188 17.1875 -4.078125 C 16.425781 -2.785156 15.351562 -1.78125 13.96875 -1.0625 C 12.582031 -0.351562 10.960938 0 9.109375 0 Z M 6.78125 -4.453125 L 8.96875 -4.453125 C 10.28125 -4.453125 11.328125 -4.828125 12.109375 -5.578125 C 12.890625 -6.328125 13.28125 -7.332031 13.28125 -8.59375 C 13.28125 -9.851562 12.890625 -10.859375 12.109375 -11.609375 C 11.328125 -12.367188 10.28125 -12.75 8.96875 -12.75 L 6.78125 -12.75 Z M 6.78125 -4.453125 "/></g></g></g><g fill="#ffffff" fill-opacity="1"><g transform="translate(142.054656, 208.974553)"><g><path d="M 1.8125 0 L 1.8125 -17.1875 L 13.609375 -17.1875 L 13.609375 -13.1875 L 6.734375 -13.1875 L 6.734375 -10.6875 L 12.9375 -10.6875 L 12.9375 -6.703125 L 6.734375 -6.703125 L 6.734375 -4.046875 L 13.875 -4.046875 L 13.875 0 Z M 1.8125 0 "/></g></g></g><g fill="#ffffff" fill-opacity="1"><g transform="translate(157.035787, 208.974553)"><g><path d="M 1.8125 0 L 1.8125 -17.1875 L 6.78125 -17.1875 L 6.78125 -4.59375 L 13.796875 -4.59375 L 13.796875 0 Z M 1.8125 0 "/></g></g></g></svg>